<?xml version="1.0" standalone="no"?><!DOCTYPE svg PUBLIC "-//W3C//DTD SVG 1.1//EN" "http://www.w3.org/Graphics/SVG/1.1/DTD/svg11.dtd"><svg xmlns:xlink="http://www.w3.org/1999/xlink" version="1.1" style="font-family:'lucida grande', 'lucida sans unicode', arial, helvetica, sans-serif;font-size:12px;" xmlns="http://www.w3.org/2000/svg" width="600" height="400"><desc>Created with Highcharts 4.2.0</desc><defs><clipPath id="highcharts-4"><rect x="0" y="0" width="580" height="316"></rect></clipPath></defs><g class="highcharts-series-group" ><g class="highcharts-series highcharts-series-0"  transform="translate(10,10) scale(1 1)"><path fill="#50B432" d="M 289.9720967710938 32.00000284157005 A 137 137 0 0 1 389.7732014160282 75.11545239392866 L 290 169 A 0 0 0 0 0 290 169 Z" stroke="#FFFFFF" stroke-width="1" stroke-linejoin="round" transform="translate(0,0)"></path><path fill="#ED561B" d="M 389.8670360613903 75.21527252098572 A 137 137 0 0 1 264.502634708201 303.60640535716186 L 290 169 A 0 0 0 0 0 290 169 Z" stroke="#FFFFFF" stroke-width="1" stroke-linejoin="round" transform="translate(0,0)"></path><path fill="#DDDF00" d="M 264.36804107395983 303.5808406929225 A 137 137 0 0 1 155.45489140493268 194.8188642883754 L 290 169 A 0 0 0 0 0 290 169 Z" stroke="#FFFFFF" stroke-width="1" stroke-linejoin="round" transform="translate(0,0)"></path><path fill="#24CBE5" d="M 155.42913981749615 194.68430629277347 A 137 137 0 0 1 153.0000240598213 169.08119353704862 L 290 169 A 0 0 0 0 0 290 169 Z" stroke="#FFFFFF" stroke-width="1" stroke-linejoin="round" transform="translate(0,0)"></path><path fill="#64E572" d="M 153.00001136628003 168.94419354334502 A 137 137 0 0 1 153.2582229013476 160.59247980065075 L 290 169 A 0 0 0 0 0 290 169 Z" stroke="#FFFFFF" stroke-width="1" stroke-linejoin="round" transform="translate(0,0)"></path><path fill="#FF9655" d="M 153.26669879102855 160.45574225010216 A 137 137 0 0 1 209.35482295461318 58.25093490544393 L 290 169 A 0 0 0 0 0 290 169 Z" stroke="#FFFFFF" stroke-width="1" stroke-linejoin="round" transform="translate(0,0)"></path><path fill="#FFF263" d="M 209.46561232383476 58.17034511636733 A 137 137 0 0 1 289.8097097484842 32.000132154734615 L 290 169 A 0 0 0 0 0 290 169 Z" stroke="#FFFFFF" stroke-width="1" stroke-linejoin="round" transform="translate(0,0)"></path></g><g class="highcharts-markers highcharts-series-0"  transform="translate(10,10) scale(1 1)"></g></g><g class="highcharts-data-labels highcharts-series-0"  visibility="visible" transform="translate(10,10) scale(1 1)" opacity="1"><path fill="none" d="M 361.3236977360083 15.734977510775146 C 356.3236977360083 15.734977510775146 353.1465146109301 23.07701451624699 348.77788781394753 33.172315398770785 L 344.40926101696493 43.26761628129458" stroke="#50B432" stroke-width="1"></path><path fill="none" d="M 441.3432155673252 249.45286357498645 C 436.3432155673252 249.45286357498645 429.33276212697433 245.5988341821727 419.6933886464918 240.29954376705385 L 410.0540151660093 235.000253351935" stroke="#ED561B" stroke-width="1"></path><path fill="none" d="M 166.91316754184652 287.0868324581534 C 171.91316754184652 287.0868324581534 177.57002179133895 281.42997820866105 185.34819638439097 273.651803615609 L 193.126370977443 265.873629022557" stroke="#DDDF00" stroke-width="1"></path><path fill="none" d="M 119.45544406414328 191 C 124.45544406414328 191 131.70564762811028 183.96322181764378 142.65682923874417 182.92803037114012 L 153.60801084937805 181.89283892463646" stroke="#24CBE5" stroke-width="1"></path><path fill="none" d="M 118.08240441892283 163.75440323395264 C 123.08240441892283 163.75440323395264 131.07845690184865 164.00568930657764 142.0730290658717 164.35120765643705 L 153.06760122989476 164.69672600629647" stroke="#64E572" stroke-width="1"></path><path fill="none" d="M 138.65678443267475 88.54713642501359 C 143.65678443267475 88.54713642501359 150.66723787302567 92.40116581782732 160.30661135350817 97.70045623294618 L 169.94598483399068 102.99974664806504" stroke="#FF9655" stroke-width="1"></path><path fill="none" d="M 233.3941619393837 10.173561778709374 C 238.3941619393837 10.173561778709374 240.86629789438337 17.7820139090706 244.26548483250778 28.24363558831729 L 247.6646717706322 38.70525726756398" stroke="#FFF263" stroke-width="1"></path><g  style="cursor:pointer;" transform="translate(366,6)"><text x="5"  style="font-size:10px;font-weight:bold;font-family:'arial', sans-serif;color:#000000;text-shadow:0 0 6px #ffffff, 0 0 3px #ffffff;fill:#000000;text-rendering:geometricprecision;" y="15"><tspan>Bromskraft : 13 %</tspan></text></g><g  style="cursor:pointer;" transform="translate(446,239)"><text x="5"  style="font-size:10px;font-weight:bold;font-family:'arial', sans-serif;color:#000000;text-shadow:0 0 6px #ffffff, 0 0 3px #ffffff;fill:#000000;text-rendering:geometricprecision;" y="15"><tspan>Hastighet : 40 %</tspan></text></g><g  style="cursor:pointer;" transform="translate(96,277)"><text x="5"  style="font-size:10px;font-weight:bold;font-family:'arial', sans-serif;color:#000000;text-shadow:0 0 6px #ffffff, 0 0 3px #ffffff;fill:#000000;text-rendering:geometricprecision;" y="15"><tspan>Magi : 19 %</tspan></text></g><g  style="cursor:pointer;" transform="translate(55,181)"><text x="5"  style="font-size:10px;font-weight:bold;font-family:'arial', sans-serif;color:#000000;text-shadow:0 0 6px #ffffff, 0 0 3px #ffffff;fill:#000000;text-rendering:geometricprecision;" y="15"><tspan>Färg : 3 %</tspan></text></g><g  style="cursor:pointer;" transform="translate(38,154)"><text x="5"  style="font-size:10px;font-weight:bold;font-family:'arial', sans-serif;color:#000000;text-shadow:0 0 6px #ffffff, 0 0 3px #ffffff;fill:#000000;text-rendering:geometricprecision;" y="15"><tspan>Julgran : 1 %</tspan></text></g><g  style="cursor:pointer;" transform="translate(66,79)"><text x="5"  style="font-size:10px;font-weight:bold;font-family:'arial', sans-serif;color:#000000;text-shadow:0 0 6px #ffffff, 0 0 3px #ffffff;fill:#000000;text-rendering:geometricprecision;" y="15"><tspan>Hype : 14 %</tspan></text></g><g  style="cursor:pointer;" transform="translate(133,0)"><text x="5"  style="font-size:10px;font-weight:bold;font-family:'arial', sans-serif;color:#000000;text-shadow:0 0 6px #ffffff, 0 0 3px #ffffff;fill:#000000;text-rendering:geometricprecision;" y="15"><tspan>Svenskhet : 10 %</tspan></text></g></g><g class="highcharts-legend"  transform="translate(56,338)"><g ><g><g class="highcharts-legend-item"  transform="translate(8,3)"><text x="21" style="color:#333;font-size:9pt;font-weight:normal;cursor:pointer;font-family:'lucida grande','lucida sans unicode',arial,helvetica,sans-serif;text-transform:none;fill:#333;" text-anchor="start"  y="15">Bromskraft</text><rect x="0" y="4" width="16" height="12"  fill="#50B432"></rect></g><g class="highcharts-legend-item"  transform="translate(113.453125,3)"><text x="21" y="15" style="color:#333;font-size:9pt;font-weight:normal;cursor:pointer;font-family:'lucida grande','lucida sans unicode',arial,helvetica,sans-serif;text-transform:none;fill:#333;" text-anchor="start" >Hastighet</text><rect x="0" y="4" width="16" height="12"  fill="#ED561B"></rect></g><g class="highcharts-legend-item"  transform="translate(210.578125,3)"><text x="21" y="15" style="color:#333;font-size:9pt;font-weight:normal;cursor:pointer;font-family:'lucida grande','lucida sans unicode',arial,helvetica,sans-serif;text-transform:none;fill:#333;" text-anchor="start" >Magi</text><rect x="0" y="4" width="16" height="12"  fill="#DDDF00"></rect></g><g class="highcharts-legend-item"  transform="translate(279.484375,3)"><text x="21" y="15" style="color:#333;font-size:9pt;font-weight:normal;cursor:pointer;font-family:'lucida grande','lucida sans unicode',arial,helvetica,sans-serif;text-transform:none;fill:#333;" text-anchor="start" >Färg</text><rect x="0" y="4" width="16" height="12"  fill="#24CBE5"></rect></g><g class="highcharts-legend-item"  transform="translate(345.9375,3)"><text x="21" y="15" style="color:#333;font-size:9pt;font-weight:normal;cursor:pointer;font-family:'lucida grande','lucida sans unicode',arial,helvetica,sans-serif;text-transform:none;fill:#333;" text-anchor="start" >Julgran</text><rect x="0" y="4" width="16" height="12"  fill="#64E572"></rect></g><g class="highcharts-legend-item"  transform="translate(430.046875,3)"><text x="21" y="15" style="color:#333;font-size:9pt;font-weight:normal;cursor:pointer;font-family:'lucida grande','lucida sans unicode',arial,helvetica,sans-serif;text-transform:none;fill:#333;" text-anchor="start" >Hype</text><rect x="0" y="4" width="16" height="12"  fill="#FF9655"></rect></g><g class="highcharts-legend-item"  transform="translate(8,21)"><text x="21" y="15" style="color:#333;font-size:9pt;font-weight:normal;cursor:pointer;font-family:'lucida grande','lucida sans unicode',arial,helvetica,sans-serif;text-transform:none;fill:#333;" text-anchor="start" >Svenskhet</text><rect x="0" y="4" width="16" height="12"  fill="#FFF263"></rect></g></g></g></g><g class="highcharts-tooltip"  style="cursor:default;padding:0;pointer-events:none;white-space:nowrap;" transform="translate(0,-9999)"><path fill="none" d="M 3.5 0.5 L 13.5 0.5 C 16.5 0.5 16.5 0.5 16.5 3.5 L 16.5 13.5 C 16.5 16.5 16.5 16.5 13.5 16.5 L 3.5 16.5 C 0.5 16.5 0.5 16.5 0.5 13.5 L 0.5 3.5 C 0.5 0.5 0.5 0.5 3.5 0.5"  stroke="black" stroke-opacity="0.049999999999999996" stroke-width="5" transform="translate(1, 1)"></path><path fill="none" d="M 3.5 0.5 L 13.5 0.5 C 16.5 0.5 16.5 0.5 16.5 3.5 L 16.5 13.5 C 16.5 16.5 16.5 16.5 13.5 16.5 L 3.5 16.5 C 0.5 16.5 0.5 16.5 0.5 13.5 L 0.5 3.5 C 0.5 0.5 0.5 0.5 3.5 0.5"  stroke="black" stroke-opacity="0.09999999999999999" stroke-width="3" transform="translate(1, 1)"></path><path fill="none" d="M 3.5 0.5 L 13.5 0.5 C 16.5 0.5 16.5 0.5 16.5 3.5 L 16.5 13.5 C 16.5 16.5 16.5 16.5 13.5 16.5 L 3.5 16.5 C 0.5 16.5 0.5 16.5 0.5 13.5 L 0.5 3.5 C 0.5 0.5 0.5 0.5 3.5 0.5"  stroke="black" stroke-opacity="0.15" stroke-width="1" transform="translate(1, 1)"></path><path fill="rgb(249, 249, 249)" fill-opacity=" .85" d="M 3.5 0.5 L 13.5 0.5 C 16.5 0.5 16.5 0.5 16.5 3.5 L 16.5 13.5 C 16.5 16.5 16.5 16.5 13.5 16.5 L 3.5 16.5 C 0.5 16.5 0.5 16.5 0.5 13.5 L 0.5 3.5 C 0.5 0.5 0.5 0.5 3.5 0.5"></path><text x="8"  style="font-size:12px;color:#000000;fill:#000000;" y="20"></text></g><text x="590" text-anchor="end"  style="cursor:pointer;color:#909090;font-size:9px;fill:#909090;" y="395">meta-chart.com</text></svg>